STARTFONT 2.1
FONT -FontForge-GallaeciaForte-Medium-R-Normal--16-150-75-75-P-106-ISO10646-1
SIZE 15 75 75
FONTBOUNDINGBOX 13 16 0 -4
COMMENT "Generated by fontforge, http://fontforge.sourceforge.net"
COMMENT "DavidCalvino"
STARTPROPERTIES 39
FOUNDRY "FontForge"
FAMILY_NAME "GallaeciaForte"
WEIGHT_NAME "Medium"
SLANT "R"
SETWIDTH_NAME "Normal"
ADD_STYLE_NAME ""
PIXEL_SIZE 16
POINT_SIZE 150
RESOLUTION_X 75
RESOLUTION_Y 75
SPACING "P"
AVERAGE_WIDTH 106
CHARSET_REGISTRY "ISO10646"
CHARSET_ENCODING "1"
FONTNAME_REGISTRY ""
CHARSET_COLLECTIONS "ISO10646-1"
FONT_NAME "GallaeciaForte"
FACE_NAME "GallaeciaForte"
COPYRIGHT "DavidCalvino"
FONT_VERSION "001.000"
FONT_ASCENT 12
FONT_DESCENT 4
UNDERLINE_POSITION -2
UNDERLINE_THICKNESS 1
X_HEIGHT 8
CAP_HEIGHT 8
RAW_ASCENT 750
RAW_DESCENT 250
NORM_SPACE 5
RELATIVE_WEIGHT 50
RELATIVE_SETWIDTH 50
SUPERSCRIPT_X 0
SUPERSCRIPT_Y 7
SUPERSCRIPT_SIZE 11
SUBSCRIPT_X 0
SUBSCRIPT_Y 2
SUBSCRIPT_SIZE 11
AVG_LOWERCASE_WIDTH 118
AVG_UPPERCASE_WIDTH 118
ENDPROPERTIES
CHARS 137
STARTCHAR space
ENCODING 32
SWIDTH 312 0
DWIDTH 5 0
BBX 1 1 0 0
BITMAP
00
ENDCHAR
STARTCHAR exclam
ENCODING 33
SWIDTH 312 0
DWIDTH 5 0
BBX 4 12 0 -3
BITMAP
70
E0
C0
C0
C0
C0
C0
C0
00
00
C0
C0
ENDCHAR
STARTCHAR quotedbl
ENCODING 34
SWIDTH 375 0
DWIDTH 6 0
BBX 5 3 0 7
BITMAP
D8
D8
90
ENDCHAR
STARTCHAR numbersign
ENCODING 35
SWIDTH 875 0
DWIDTH 14 0
BBX 13 13 0 -4
BITMAP
0420
0C60
0C60
3FF8
7FF0
18C0
18C0
18C0
7FF0
FFE0
3180
3180
2100
ENDCHAR
STARTCHAR dollar
ENCODING 36
SWIDTH 562 0
DWIDTH 9 0
BBX 8 14 0 -4
BITMAP
18
3D
7F
DA
D8
F8
7C
3E
1B
DB
DB
7E
3C
18
ENDCHAR
STARTCHAR percent
ENCODING 37
SWIDTH 812 0
DWIDTH 13 0
BBX 12 12 0 -3
BITMAP
2180
7180
D980
7300
2300
0600
0600
0C40
0CE0
19B0
18E0
1840
ENDCHAR
STARTCHAR ampersand
ENCODING 38
SWIDTH 750 0
DWIDTH 12 0
BBX 11 12 0 -3
BITMAP
3C00
7E00
6640
6620
3C60
7EC0
E780
C300
C380
E7C0
7EE0
3C60
ENDCHAR
STARTCHAR quotesingle
ENCODING 39
SWIDTH 187 0
DWIDTH 3 0
BBX 2 3 0 7
BITMAP
C0
C0
80
ENDCHAR
STARTCHAR parenleft
ENCODING 40
SWIDTH 312 0
DWIDTH 5 0
BBX 4 14 0 -4
BITMAP
10
30
70
60
E0
C0
C0
C0
C0
E0
E0
70
30
10
ENDCHAR
STARTCHAR parenright
ENCODING 41
SWIDTH 312 0
DWIDTH 5 0
BBX 4 14 0 -4
BITMAP
80
C0
E0
60
70
30
30
30
30
30
70
E0
C0
80
ENDCHAR
STARTCHAR plus
ENCODING 43
SWIDTH 562 0
DWIDTH 9 0
BBX 8 8 0 -1
BITMAP
08
18
18
7F
FE
18
18
10
ENDCHAR
STARTCHAR comma
ENCODING 44
SWIDTH 187 0
DWIDTH 3 0
BBX 2 3 0 -3
BITMAP
C0
C0
80
ENDCHAR
STARTCHAR hyphen
ENCODING 45
SWIDTH 562 0
DWIDTH 9 0
BBX 7 2 1 2
BITMAP
7E
FC
ENDCHAR
STARTCHAR period
ENCODING 46
SWIDTH 187 0
DWIDTH 3 0
BBX 2 2 0 -3
BITMAP
C0
C0
ENDCHAR
STARTCHAR slash
ENCODING 47
SWIDTH 375 0
DWIDTH 6 0
BBX 5 12 0 -3
BITMAP
18
18
18
30
30
30
60
60
60
C0
C0
C0
ENDCHAR
STARTCHAR zero
ENCODING 48
SWIDTH 562 0
DWIDTH 9 0
BBX 8 12 0 -3
BITMAP
3C
7E
E7
C3
C3
DB
DB
C3
C3
E7
7E
3C
ENDCHAR
STARTCHAR one
ENCODING 49
SWIDTH 500 0
DWIDTH 8 0
BBX 7 12 0 -3
BITMAP
18
38
38
58
98
18
18
18
18
18
3C
7E
ENDCHAR
STARTCHAR two
ENCODING 50
SWIDTH 625 0
DWIDTH 10 0
BBX 9 12 0 -3
BITMAP
3E00
7F00
E380
C980
F180
6300
0700
1E00
3800
6080
FF80
FF80
ENDCHAR
STARTCHAR three
ENCODING 51
SWIDTH 625 0
DWIDTH 10 0
BBX 9 12 0 -3
BITMAP
3E00
7F00
E380
C180
0380
0F00
0F00
6380
D180
C380
7F80
3F00
ENDCHAR
STARTCHAR four
ENCODING 52
SWIDTH 625 0
DWIDTH 10 0
BBX 9 12 0 -3
BITMAP
0E00
1E00
3600
3600
6700
6F00
DE00
F600
6600
0600
0F00
1F80
ENDCHAR
STARTCHAR five
ENCODING 53
SWIDTH 625 0
DWIDTH 10 0
BBX 9 12 0 -3
BITMAP
FF00
FF00
C100
FC00
FE00
C700
0380
6180
D180
C380
7F80
3F00
ENDCHAR
STARTCHAR six
ENCODING 54
SWIDTH 687 0
DWIDTH 11 0
BBX 10 12 0 -3
BITMAP
0F00
3C00
7000
6000
E700
CF80
D8C0
DAC0
CCC0
E1C0
7F80
3F00
ENDCHAR
STARTCHAR seven
ENCODING 55
SWIDTH 625 0
DWIDTH 10 0
BBX 9 12 0 -3
BITMAP
FF80
FF80
8180
0380
0700
0E00
0C00
1C00
1800
1800
3C00
7E00
ENDCHAR
STARTCHAR eight
ENCODING 56
SWIDTH 562 0
DWIDTH 9 0
BBX 8 12 0 -3
BITMAP
7C
FE
C6
66
0C
7E
E7
C3
C3
E7
7E
3C
ENDCHAR
STARTCHAR nine
ENCODING 57
SWIDTH 687 0
DWIDTH 11 0
BBX 10 12 0 -3
BITMAP
3F00
7F80
E1C0
CCC0
D6C0
C6C0
7CC0
39C0
0180
0380
0700
0E00
ENDCHAR
STARTCHAR colon
ENCODING 58
SWIDTH 187 0
DWIDTH 3 0
BBX 2 7 0 -3
BITMAP
C0
C0
00
00
00
C0
C0
ENDCHAR
STARTCHAR semicolon
ENCODING 59
SWIDTH 187 0
DWIDTH 3 0
BBX 2 7 0 -3
BITMAP
C0
C0
00
00
C0
C0
80
ENDCHAR
STARTCHAR equal
ENCODING 61
SWIDTH 625 0
DWIDTH 10 0
BBX 8 6 1 0
BITMAP
7F
FE
00
00
7E
FC
ENDCHAR
STARTCHAR question
ENCODING 63
SWIDTH 625 0
DWIDTH 10 0
BBX 9 13 0 -3
BITMAP
3E00
7F00
E380
C180
E980
7380
0700
0E00
1C00
1800
0000
1800
1800
ENDCHAR
STARTCHAR at
ENCODING 64
SWIDTH 812 0
DWIDTH 13 0
BBX 12 12 0 -3
BITMAP
1F80
3FC0
6060
CF30
DFB0
D9B0
D9B0
DFF0
CEE0
6000
3FC0
1F80
ENDCHAR
STARTCHAR A
ENCODING 65
SWIDTH 812 0
DWIDTH 13 0
BBX 12 12 0 -3
BITMAP
0600
0F00
0F00
1980
1980
D9B0
F9F0
3FC0
36C0
70E0
6060
F0F0
ENDCHAR
STARTCHAR B
ENCODING 66
SWIDTH 812 0
DWIDTH 13 0
BBX 12 12 0 -3
BITMAP
FF80
7FC0
30E0
3060
30E0
37C0
37E0
3070
3030
3070
77E0
F7C0
ENDCHAR
STARTCHAR C
ENCODING 67
SWIDTH 750 0
DWIDTH 12 0
BBX 11 12 0 -3
BITMAP
1FA0
3FE0
70E0
E060
C000
C000
C000
C000
E060
70E0
3FE0
1FA0
ENDCHAR
STARTCHAR D
ENCODING 68
SWIDTH 812 0
DWIDTH 13 0
BBX 12 12 0 -3
BITMAP
FF80
7FC0
30E0
3070
3030
3030
3030
3030
3070
30E0
7FC0
FF80
ENDCHAR
STARTCHAR E
ENCODING 69
SWIDTH 750 0
DWIDTH 12 0
BBX 11 12 0 -3
BITMAP
1FA0
3FE0
70E0
E060
C000
FF00
FF00
C000
E060
70E0
3FE0
1FA0
ENDCHAR
STARTCHAR F
ENCODING 70
SWIDTH 625 0
DWIDTH 10 0
BBX 9 12 0 -3
BITMAP
0F80
1F80
3800
3000
3000
3F00
3F00
3000
3000
3000
7800
FC00
ENDCHAR
STARTCHAR G
ENCODING 71
SWIDTH 750 0
DWIDTH 12 0
BBX 11 12 0 -3
BITMAP
1F80
3FC0
70C0
E000
C780
CFC0
CC60
CE60
E660
70E0
3FC0
1F80
ENDCHAR
STARTCHAR H
ENCODING 72
SWIDTH 812 0
DWIDTH 13 0
BBX 12 12 0 -3
BITMAP
F0F0
6060
6060
6060
6060
7FE0
7FE0
6060
6060
6060
6060
F0F0
ENDCHAR
STARTCHAR I
ENCODING 73
SWIDTH 437 0
DWIDTH 7 0
BBX 6 12 0 -3
BITMAP
FC
78
30
30
30
30
30
30
30
30
78
FC
ENDCHAR
STARTCHAR J
ENCODING 74
SWIDTH 625 0
DWIDTH 10 0
BBX 9 12 0 -3
BITMAP
1F80
0F00
0600
0600
0600
3600
7600
E600
C600
EE00
7C00
3800
ENDCHAR
STARTCHAR K
ENCODING 75
SWIDTH 812 0
DWIDTH 13 0
BBX 12 12 0 -3
BITMAP
F000
7180
3180
3380
3300
3F00
3F80
31C0
30E0
3060
7860
FCF0
ENDCHAR
STARTCHAR L
ENCODING 76
SWIDTH 687 0
DWIDTH 11 0
BBX 10 12 0 -3
BITMAP
FC00
7800
3000
3000
3000
3000
3000
3000
3040
30C0
3FC0
3FC0
ENDCHAR
STARTCHAR M
ENCODING 77
SWIDTH 875 0
DWIDTH 14 0
BBX 13 12 0 -3
BITMAP
F760
7FF0
3BD8
3198
3198
3198
3198
3398
3330
3070
78E0
FDF8
ENDCHAR
STARTCHAR N
ENCODING 78
SWIDTH 812 0
DWIDTH 13 0
BBX 12 12 0 -3
BITMAP
F3C0
77E0
3E70
3C30
3030
3070
3060
3060
3060
3060
7860
FCF0
ENDCHAR
STARTCHAR O
ENCODING 79
SWIDTH 812 0
DWIDTH 13 0
BBX 12 12 0 -3
BITMAP
1F80
3FC0
70E0
E070
C030
C630
C630
C030
E070
70E0
3FC0
1F80
ENDCHAR
STARTCHAR P
ENCODING 80
SWIDTH 750 0
DWIDTH 12 0
BBX 11 12 0 -3
BITMAP
FF80
7FC0
30E0
3060
30E0
37C0
3780
3000
3000
3000
7800
FC00
ENDCHAR
STARTCHAR Q
ENCODING 81
SWIDTH 875 0
DWIDTH 14 0
BBX 13 12 0 -3
BITMAP
1F80
3FC0
70E0
E070
C030
C030
C030
C3B0
E3F0
70E0
3FF0
1FB8
ENDCHAR
STARTCHAR R
ENCODING 82
SWIDTH 875 0
DWIDTH 14 0
BBX 13 13 0 -4
BITMAP
FF80
7FC0
30E0
3060
30E0
37C0
37E0
3070
3030
3070
7060
F078
0030
ENDCHAR
STARTCHAR S
ENCODING 83
SWIDTH 562 0
DWIDTH 9 0
BBX 8 12 0 -3
BITMAP
3D
7F
E6
C0
E0
7C
3E
07
C3
E7
7E
3C
ENDCHAR
STARTCHAR T
ENCODING 84
SWIDTH 687 0
DWIDTH 11 0
BBX 10 12 0 -3
BITMAP
FFC0
FFC0
C380
8F00
3C00
7980
E3C0
C1C0
C0C0
E1C0
7F80
3F00
ENDCHAR
STARTCHAR U
ENCODING 85
SWIDTH 812 0
DWIDTH 13 0
BBX 12 12 0 -3
BITMAP
F0F0
6060
6060
6060
6060
6060
6060
6060
6060
70E0
3FC0
1F80
ENDCHAR
STARTCHAR V
ENCODING 86
SWIDTH 875 0
DWIDTH 14 0
BBX 13 12 0 -3
BITMAP
F078
6030
6030
3060
3060
18C0
18C0
0D80
0D80
0700
0700
0F80
ENDCHAR
STARTCHAR W
ENCODING 87
SWIDTH 875 0
DWIDTH 14 0
BBX 13 12 0 -3
BITMAP
F078
6230
6230
6230
3560
3560
3560
3560
3560
3560
18C0
3DE0
ENDCHAR
STARTCHAR X
ENCODING 88
SWIDTH 750 0
DWIDTH 12 0
BBX 11 12 0 -3
BITMAP
F1E0
60C0
3180
3180
1B00
0E00
0E00
1B00
3180
3180
60C0
F1E0
ENDCHAR
STARTCHAR Y
ENCODING 89
SWIDTH 687 0
DWIDTH 11 0
BBX 10 12 0 -3
BITMAP
E1C0
6180
6180
6180
7380
3F00
1E00
0C00
0C00
0C00
1E00
3F00
ENDCHAR
STARTCHAR Z
ENCODING 90
SWIDTH 687 0
DWIDTH 11 0
BBX 10 12 0 -3
BITMAP
FFC0
FFC0
81C0
0380
6700
3E00
1F00
3980
7000
E040
FFC0
FFC0
ENDCHAR
STARTCHAR bracketleft
ENCODING 91
SWIDTH 312 0
DWIDTH 5 0
BBX 4 14 0 -4
BITMAP
F0
E0
C0
C0
C0
C0
C0
C0
C0
C0
C0
C0
E0
F0
ENDCHAR
STARTCHAR backslash
ENCODING 92
SWIDTH 375 0
DWIDTH 6 0
BBX 5 12 0 -3
BITMAP
C0
C0
C0
60
60
60
30
30
30
18
18
18
ENDCHAR
STARTCHAR bracketright
ENCODING 93
SWIDTH 312 0
DWIDTH 5 0
BBX 4 14 0 -4
BITMAP
F0
70
30
30
30
30
30
30
30
30
30
30
70
F0
ENDCHAR
STARTCHAR underscore
ENCODING 95
SWIDTH 687 0
DWIDTH 11 0
BBX 9 2 1 -3
BITMAP
7F80
FF00
ENDCHAR
STARTCHAR a
ENCODING 97
SWIDTH 812 0
DWIDTH 13 0
BBX 12 12 0 -3
BITMAP
0600
0F00
0F00
1980
1980
D9B0
F9F0
3FC0
36C0
70E0
6060
F0F0
ENDCHAR
STARTCHAR b
ENCODING 98
SWIDTH 812 0
DWIDTH 13 0
BBX 12 12 0 -3
BITMAP
FF80
7FC0
30E0
3060
30E0
37C0
37E0
3070
3030
3070
77E0
F7C0
ENDCHAR
STARTCHAR c
ENCODING 99
SWIDTH 750 0
DWIDTH 12 0
BBX 11 12 0 -3
BITMAP
1FA0
3FE0
70E0
E060
C000
C000
C000
C000
E060
70E0
3FE0
1FA0
ENDCHAR
STARTCHAR d
ENCODING 100
SWIDTH 812 0
DWIDTH 13 0
BBX 12 12 0 -3
BITMAP
FF80
7FC0
30E0
3070
3030
3030
3030
3030
3070
30E0
7FC0
FF80
ENDCHAR
STARTCHAR e
ENCODING 101
SWIDTH 750 0
DWIDTH 12 0
BBX 11 12 0 -3
BITMAP
1FA0
3FE0
70E0
E060
C000
FF00
FF00
C000
E060
70E0
3FE0
1FA0
ENDCHAR
STARTCHAR f
ENCODING 102
SWIDTH 625 0
DWIDTH 10 0
BBX 9 12 0 -3
BITMAP
0F80
1F80
3800
3000
3000
3F00
3F00
3000
3000
3000
7800
FC00
ENDCHAR
STARTCHAR g
ENCODING 103
SWIDTH 750 0
DWIDTH 12 0
BBX 11 12 0 -3
BITMAP
1F80
3FC0
70C0
E000
C780
CFC0
CC60
CE60
E660
70E0
3FC0
1F80
ENDCHAR
STARTCHAR h
ENCODING 104
SWIDTH 812 0
DWIDTH 13 0
BBX 12 12 0 -3
BITMAP
F0F0
6060
6060
6060
6060
7FE0
7FE0
6060
6060
6060
6060
F0F0
ENDCHAR
STARTCHAR i
ENCODING 105
SWIDTH 437 0
DWIDTH 7 0
BBX 6 12 0 -3
BITMAP
FC
78
30
30
30
30
30
30
30
30
78
FC
ENDCHAR
STARTCHAR j
ENCODING 106
SWIDTH 625 0
DWIDTH 10 0
BBX 9 12 0 -3
BITMAP
1F80
0F00
0600
0600
0600
3600
7600
E600
C600
EE00
7C00
3800
ENDCHAR
STARTCHAR k
ENCODING 107
SWIDTH 812 0
DWIDTH 13 0
BBX 12 12 0 -3
BITMAP
F000
7180
3180
3380
3300
3F00
3F80
31C0
30E0
3060
7860
FCF0
ENDCHAR
STARTCHAR l
ENCODING 108
SWIDTH 687 0
DWIDTH 11 0
BBX 10 12 0 -3
BITMAP
FC00
7800
3000
3000
3000
3000
3000
3000
3040
30C0
3FC0
3FC0
ENDCHAR
STARTCHAR m
ENCODING 109
SWIDTH 875 0
DWIDTH 14 0
BBX 13 12 0 -3
BITMAP
F760
7FF0
3BD8
3198
3198
3198
3198
3398
3330
3070
78E0
FDF8
ENDCHAR
STARTCHAR n
ENCODING 110
SWIDTH 812 0
DWIDTH 13 0
BBX 12 12 0 -3
BITMAP
F3C0
77E0
3E70
3C30
3030
3070
3060
3060
3060
3060
7860
FCF0
ENDCHAR
STARTCHAR o
ENCODING 111
SWIDTH 812 0
DWIDTH 13 0
BBX 12 12 0 -3
BITMAP
1F80
3FC0
70E0
E070
C030
C630
C630
C030
E070
70E0
3FC0
1F80
ENDCHAR
STARTCHAR p
ENCODING 112
SWIDTH 750 0
DWIDTH 12 0
BBX 11 12 0 -3
BITMAP
FF80
7FC0
30E0
3060
30E0
37C0
3780
3000
3000
3000
7800
FC00
ENDCHAR
STARTCHAR q
ENCODING 113
SWIDTH 875 0
DWIDTH 14 0
BBX 13 12 0 -3
BITMAP
1F80
3FC0
70E0
E070
C030
C030
C030
C3B0
E3F0
70E0
3FF0
1FB8
ENDCHAR
STARTCHAR r
ENCODING 114
SWIDTH 875 0
DWIDTH 14 0
BBX 13 13 0 -4
BITMAP
FF80
7FC0
30E0
3060
30E0
37C0
37E0
3070
3030
3070
7060
F078
0030
ENDCHAR
STARTCHAR s
ENCODING 115
SWIDTH 562 0
DWIDTH 9 0
BBX 8 12 0 -3
BITMAP
3D
7F
E6
C0
E0
7C
3E
07
C3
E7
7E
3C
ENDCHAR
STARTCHAR t
ENCODING 116
SWIDTH 687 0
DWIDTH 11 0
BBX 10 12 0 -3
BITMAP
FFC0
FFC0
C380
8F00
3C00
7980
E3C0
C1C0
C0C0
E1C0
7F80
3F00
ENDCHAR
STARTCHAR u
ENCODING 117
SWIDTH 812 0
DWIDTH 13 0
BBX 12 12 0 -3
BITMAP
F0F0
6060
6060
6060
6060
6060
6060
6060
6060
70E0
3FC0
1F80
ENDCHAR
STARTCHAR v
ENCODING 118
SWIDTH 875 0
DWIDTH 14 0
BBX 13 12 0 -3
BITMAP
F078
6030
6030
3060
3060
18C0
18C0
0D80
0D80
0700
0700
0F80
ENDCHAR
STARTCHAR w
ENCODING 119
SWIDTH 875 0
DWIDTH 14 0
BBX 13 12 0 -3
BITMAP
F078
6230
6230
6230
3560
3560
3560
3560
3560
3560
18C0
3DE0
ENDCHAR
STARTCHAR x
ENCODING 120
SWIDTH 750 0
DWIDTH 12 0
BBX 11 12 0 -3
BITMAP
F1E0
60C0
3180
3180
1B00
0E00
0E00
1B00
3180
3180
60C0
F1E0
ENDCHAR
STARTCHAR y
ENCODING 121
SWIDTH 687 0
DWIDTH 11 0
BBX 10 12 0 -3
BITMAP
E1C0
6180
6180
6180
7380
3F00
1E00
0C00
0C00
0C00
1E00
3F00
ENDCHAR
STARTCHAR z
ENCODING 122
SWIDTH 687 0
DWIDTH 11 0
BBX 10 12 0 -3
BITMAP
FFC0
FFC0
81C0
0380
6700
3E00
1F00
3980
7000
E040
FFC0
FFC0
ENDCHAR
STARTCHAR uni00A0
ENCODING 160
SWIDTH 312 0
DWIDTH 5 0
BBX 1 1 0 0
BITMAP
00
ENDCHAR
STARTCHAR exclamdown
ENCODING 161
SWIDTH 312 0
DWIDTH 5 0
BBX 4 12 0 -3
BITMAP
30
30
00
00
30
30
30
30
30
30
70
E0
ENDCHAR
STARTCHAR questiondown
ENCODING 191
SWIDTH 625 0
DWIDTH 10 0
BBX 9 13 0 -3
BITMAP
0C00
0C00
0000
0C00
1C00
3800
7000
E700
CB80
C180
E380
7F00
3E00
ENDCHAR
STARTCHAR Agrave
ENCODING 192
SWIDTH 812 0
DWIDTH 13 0
BBX 12 15 0 -3
BITMAP
1C00
0E00
0000
0600
0F00
0F00
1980
1980
D9B0
F9F0
3FC0
36C0
70E0
6060
F0F0
ENDCHAR
STARTCHAR Aacute
ENCODING 193
SWIDTH 812 0
DWIDTH 13 0
BBX 12 15 0 -3
BITMAP
0380
0700
0000
0600
0F00
0F00
1980
1980
D9B0
F9F0
3FC0
36C0
70E0
6060
F0F0
ENDCHAR
STARTCHAR Acircumflex
ENCODING 194
SWIDTH 812 0
DWIDTH 13 0
BBX 12 15 0 -3
BITMAP
0600
0F00
0000
0600
0F00
0F00
1980
1980
D9B0
F9F0
3FC0
36C0
70E0
6060
F0F0
ENDCHAR
STARTCHAR Adieresis
ENCODING 196
SWIDTH 812 0
DWIDTH 13 0
BBX 12 15 0 -3
BITMAP
1980
1980
0000
0600
0F00
0F00
1980
1980
D9B0
F9F0
3FC0
36C0
70E0
6060
F0F0
ENDCHAR
STARTCHAR Ccedilla
ENCODING 199
SWIDTH 750 0
DWIDTH 12 0
BBX 11 13 0 -4
BITMAP
1FA0
3FE0
70E0
E060
C000
C000
C000
C000
E660
76E0
3FE0
1FA0
0600
ENDCHAR
STARTCHAR Egrave
ENCODING 200
SWIDTH 750 0
DWIDTH 12 0
BBX 11 15 0 -3
BITMAP
0E00
0700
0000
1FA0
3FE0
70E0
E060
C000
FF00
FF00
C000
E060
70E0
3FE0
1FA0
ENDCHAR
STARTCHAR Eacute
ENCODING 201
SWIDTH 750 0
DWIDTH 12 0
BBX 11 15 0 -3
BITMAP
0700
0E00
0000
1FA0
3FE0
70E0
E060
C000
FF00
FF00
C000
E060
70E0
3FE0
1FA0
ENDCHAR
STARTCHAR Ecircumflex
ENCODING 202
SWIDTH 750 0
DWIDTH 12 0
BBX 11 15 0 -3
BITMAP
0600
0F00
0000
1FA0
3FE0
70E0
E060
C000
FF00
FF00
C000
E060
70E0
3FE0
1FA0
ENDCHAR
STARTCHAR Edieresis
ENCODING 203
SWIDTH 750 0
DWIDTH 12 0
BBX 11 15 0 -3
BITMAP
1980
1980
0000
1FA0
3FE0
70E0
E060
C000
FF00
FF00
C000
E060
70E0
3FE0
1FA0
ENDCHAR
STARTCHAR Igrave
ENCODING 204
SWIDTH 437 0
DWIDTH 7 0
BBX 6 15 0 -3
BITMAP
E0
70
00
FC
78
30
30
30
30
30
30
30
30
78
FC
ENDCHAR
STARTCHAR Iacute
ENCODING 205
SWIDTH 437 0
DWIDTH 7 0
BBX 6 15 0 -3
BITMAP
1C
38
00
FC
78
30
30
30
30
30
30
30
30
78
FC
ENDCHAR
STARTCHAR Icircumflex
ENCODING 206
SWIDTH 437 0
DWIDTH 7 0
BBX 6 15 0 -3
BITMAP
30
78
00
FC
78
30
30
30
30
30
30
30
30
78
FC
ENDCHAR
STARTCHAR Idieresis
ENCODING 207
SWIDTH 437 0
DWIDTH 7 0
BBX 6 15 0 -3
BITMAP
CC
CC
00
FC
78
30
30
30
30
30
30
30
30
78
FC
ENDCHAR
STARTCHAR Ntilde
ENCODING 209
SWIDTH 812 0
DWIDTH 13 0
BBX 12 15 0 -3
BITMAP
0FE0
1FC0
0000
F3C0
77E0
3E70
3C30
3030
3070
3060
3060
3060
3060
7860
FCF0
ENDCHAR
STARTCHAR Ograve
ENCODING 210
SWIDTH 812 0
DWIDTH 13 0
BBX 12 15 0 -3
BITMAP
0E00
0700
0000
1F80
3FC0
70E0
E070
C030
C630
C630
C030
E070
70E0
3FC0
1F80
ENDCHAR
STARTCHAR Oacute
ENCODING 211
SWIDTH 812 0
DWIDTH 13 0
BBX 12 15 0 -3
BITMAP
0380
0700
0000
1F80
3FC0
70E0
E070
C030
C630
C630
C030
E070
70E0
3FC0
1F80
ENDCHAR
STARTCHAR Ocircumflex
ENCODING 212
SWIDTH 812 0
DWIDTH 13 0
BBX 12 15 0 -3
BITMAP
0600
0F00
0000
1F80
3FC0
70E0
E070
C030
C630
C630
C030
E070
70E0
3FC0
1F80
ENDCHAR
STARTCHAR Odieresis
ENCODING 214
SWIDTH 812 0
DWIDTH 13 0
BBX 12 15 0 -3
BITMAP
1980
1980
0000
1F80
3FC0
70E0
E070
C030
C630
C630
C030
E070
70E0
3FC0
1F80
ENDCHAR
STARTCHAR Ugrave
ENCODING 217
SWIDTH 812 0
DWIDTH 13 0
BBX 12 15 0 -3
BITMAP
0E00
0700
0000
F0F0
6060
6060
6060
6060
6060
6060
6060
6060
70E0
3FC0
1F80
ENDCHAR
STARTCHAR Uacute
ENCODING 218
SWIDTH 812 0
DWIDTH 13 0
BBX 12 15 0 -3
BITMAP
0700
0E00
0000
F0F0
6060
6060
6060
6060
6060
6060
6060
6060
70E0
3FC0
1F80
ENDCHAR
STARTCHAR Ucircumflex
ENCODING 219
SWIDTH 812 0
DWIDTH 13 0
BBX 12 15 0 -3
BITMAP
0600
0F00
0000
F0F0
6060
6060
6060
6060
6060
6060
6060
6060
70E0
3FC0
1F80
ENDCHAR
STARTCHAR Udieresis
ENCODING 220
SWIDTH 812 0
DWIDTH 13 0
BBX 12 15 0 -3
BITMAP
1980
1980
0000
F0F0
6060
6060
6060
6060
6060
6060
6060
6060
70E0
3FC0
1F80
ENDCHAR
STARTCHAR agrave
ENCODING 224
SWIDTH 812 0
DWIDTH 13 0
BBX 12 15 0 -3
BITMAP
0E00
0700
0000
0600
0F00
0F00
1980
1980
D9B0
F9F0
3FC0
36C0
70E0
6060
F0F0
ENDCHAR
STARTCHAR aacute
ENCODING 225
SWIDTH 812 0
DWIDTH 13 0
BBX 12 15 0 -3
BITMAP
0380
0700
0000
0600
0F00
0F00
1980
1980
D9B0
F9F0
3FC0
36C0
70E0
6060
F0F0
ENDCHAR
STARTCHAR acircumflex
ENCODING 226
SWIDTH 812 0
DWIDTH 13 0
BBX 12 15 0 -3
BITMAP
0600
0F00
0000
0600
0F00
0F00
1980
1980
D9B0
F9F0
3FC0
36C0
70E0
6060
F0F0
ENDCHAR
STARTCHAR adieresis
ENCODING 228
SWIDTH 812 0
DWIDTH 13 0
BBX 12 15 0 -3
BITMAP
1980
1980
0000
0600
0F00
0F00
1980
1980
D9B0
F9F0
3FC0
36C0
70E0
6060
F0F0
ENDCHAR
STARTCHAR ccedilla
ENCODING 231
SWIDTH 750 0
DWIDTH 12 0
BBX 11 13 0 -4
BITMAP
1FA0
3FE0
70E0
E060
C000
C000
C000
C000
E660
76E0
3FE0
1FA0
0600
ENDCHAR
STARTCHAR egrave
ENCODING 232
SWIDTH 750 0
DWIDTH 12 0
BBX 11 15 0 -3
BITMAP
0E00
0700
0000
1FA0
3FE0
70E0
E060
C000
FF00
FF00
C000
E060
70E0
3FE0
1FA0
ENDCHAR
STARTCHAR eacute
ENCODING 233
SWIDTH 750 0
DWIDTH 12 0
BBX 11 15 0 -3
BITMAP
0380
0700
0000
1FA0
3FE0
70E0
E060
C000
FF00
FF00
C000
E060
70E0
3FE0
1FA0
ENDCHAR
STARTCHAR ecircumflex
ENCODING 234
SWIDTH 750 0
DWIDTH 12 0
BBX 11 15 0 -3
BITMAP
0600
0F00
0000
1FA0
3FE0
70E0
E060
C000
FF00
FF00
C000
E060
70E0
3FE0
1FA0
ENDCHAR
STARTCHAR edieresis
ENCODING 235
SWIDTH 750 0
DWIDTH 12 0
BBX 11 15 0 -3
BITMAP
1980
1980
0000
1FA0
3FE0
70E0
E060
C000
FF00
FF00
C000
E060
70E0
3FE0
1FA0
ENDCHAR
STARTCHAR igrave
ENCODING 236
SWIDTH 437 0
DWIDTH 7 0
BBX 6 15 0 -3
BITMAP
E0
70
00
FC
78
30
30
30
30
30
30
30
30
78
FC
ENDCHAR
STARTCHAR iacute
ENCODING 237
SWIDTH 437 0
DWIDTH 7 0
BBX 6 15 0 -3
BITMAP
1C
38
00
FC
78
30
30
30
30
30
30
30
30
78
FC
ENDCHAR
STARTCHAR icircumflex
ENCODING 238
SWIDTH 437 0
DWIDTH 7 0
BBX 6 15 0 -3
BITMAP
30
78
00
FC
78
30
30
30
30
30
30
30
30
78
FC
ENDCHAR
STARTCHAR idieresis
ENCODING 239
SWIDTH 437 0
DWIDTH 7 0
BBX 6 15 0 -3
BITMAP
CC
CC
00
FC
78
30
30
30
30
30
30
30
30
78
FC
ENDCHAR
STARTCHAR ntilde
ENCODING 241
SWIDTH 812 0
DWIDTH 13 0
BBX 12 15 0 -3
BITMAP
0FE0
1FC0
0000
F3C0
77E0
3E70
3C30
3030
3070
3060
3060
3060
3060
7860
FCF0
ENDCHAR
STARTCHAR ograve
ENCODING 242
SWIDTH 812 0
DWIDTH 13 0
BBX 12 15 0 -3
BITMAP
0E00
0700
0000
1F80
3FC0
70E0
E070
C030
C630
C630
C030
E070
70E0
3FC0
1F80
ENDCHAR
STARTCHAR oacute
ENCODING 243
SWIDTH 812 0
DWIDTH 13 0
BBX 12 15 0 -3
BITMAP
0380
0700
0000
1F80
3FC0
70E0
E070
C030
C630
C630
C030
E070
70E0
3FC0
1F80
ENDCHAR
STARTCHAR ocircumflex
ENCODING 244
SWIDTH 812 0
DWIDTH 13 0
BBX 12 15 0 -3
BITMAP
0600
0F00
0000
1F80
3FC0
70E0
E070
C030
C630
C630
C030
E070
70E0
3FC0
1F80
ENDCHAR
STARTCHAR odieresis
ENCODING 246
SWIDTH 812 0
DWIDTH 13 0
BBX 12 15 0 -3
BITMAP
1980
1980
0000
1F80
3FC0
70E0
E070
C030
C630
C630
C030
E070
70E0
3FC0
1F80
ENDCHAR
STARTCHAR divide
ENCODING 247
SWIDTH 562 0
DWIDTH 9 0
BBX 8 8 0 -1
BITMAP
18
18
00
7F
FE
00
18
18
ENDCHAR
STARTCHAR ugrave
ENCODING 249
SWIDTH 812 0
DWIDTH 13 0
BBX 12 15 0 -3
BITMAP
0E00
0700
0000
F0F0
6060
6060
6060
6060
6060
6060
6060
6060
70E0
3FC0
1F80
ENDCHAR
STARTCHAR uacute
ENCODING 250
SWIDTH 812 0
DWIDTH 13 0
BBX 12 15 0 -3
BITMAP
0380
0700
0000
F0F0
6060
6060
6060
6060
6060
6060
6060
6060
70E0
3FC0
1F80
ENDCHAR
STARTCHAR ucircumflex
ENCODING 251
SWIDTH 812 0
DWIDTH 13 0
BBX 12 15 0 -3
BITMAP
0600
0F00
0000
F0F0
6060
6060
6060
6060
6060
6060
6060
6060
70E0
3FC0
1F80
ENDCHAR
STARTCHAR udieresis
ENCODING 252
SWIDTH 812 0
DWIDTH 13 0
BBX 12 15 0 -3
BITMAP
1980
1980
0000
F0F0
6060
6060
6060
6060
6060
6060
6060
6060
70E0
3FC0
1F80
ENDCHAR
STARTCHAR .notdef
ENCODING -1
SWIDTH 365 0
DWIDTH 6 0
BBX 5 11 1 0
BITMAP
F8
88
88
88
88
88
88
88
88
88
F8
ENDCHAR
STARTCHAR .null
ENCODING -1
SWIDTH 0 0
DWIDTH 0 0
BBX 1 1 0 0
BITMAP
00
ENDCHAR
STARTCHAR nonmarkingreturn
ENCODING -1
SWIDTH 333 0
DWIDTH 5 0
BBX 1 1 0 0
BITMAP
00
ENDCHAR
ENDFONT
